REM MD5 0a7874c91bf9d1c4f3f9f7a79ef4f704
FILE "Free Spin Demo Disc! (Europe).bin" BINARY
  TRACK 01 MODE2/2352
    INDEX 01 00:00:00
  TRACK 02 AUDIO
    INDEX 00 35:33:31
    INDEX 01 35:35:31
  TRACK 03 AUDIO
    INDEX 00 38:37:38
    INDEX 01 38:39:38
  TRACK 04 AUDIO
    INDEX 00 41:41:45
    INDEX 01 41:43:45
REM LEADOUT 44:45:02
